<svg width="48" height="48" viewBox="0 0 48 48" fill="none" xmlns="http://www.w3.org/2000/svg">
<g id="icon">
<path id="Vector" d="M25.6178 19.4774C25.3773 19.3686 25.2258 19.32 25.0202 19.2566C24.2194 19.0081 23.3747 18.9888 22.4855 19.1852C22.122 19.2652 21.7407 19.3926 21.3275 19.5559C20.9151 19.7188 20.4861 19.9149 20.0136 20.1641C19.5179 20.4264 19.1178 20.6544 18.0441 21.2891C16.6554 22.11 15.9507 22.4888 15.1452 22.8554C14.5624 23.1207 14.0297 23.3247 13.4028 23.5141C12.0218 23.9307 10.8186 24.5492 9.80537 25.366C8.93378 26.0699 8.26406 26.861 7.78133 27.7653C7.69356 27.9286 7.50239 28.3514 7.44056 28.5203C7.03872 29.6013 6.94225 30.677 7.18429 31.7501C7.38059 32.6182 7.80776 33.4881 8.33734 34.09C9.11343 34.9731 10.1563 35.5146 11.7471 35.8886C12.2403 36.0056 12.8716 36.129 13.8891 36.2871C15.3344 36.5142 16.1133 36.6828 16.809 36.9075C17.8034 37.2283 18.7999 37.7719 19.9174 38.619C20.2566 38.8748 20.5639 39.1149 21.2652 39.6987C22.0804 40.3774 22.395 40.6381 22.8046 40.9295C23.0843 41.1271 23.4251 41.3321 23.6542 41.4576C23.7154 41.4913 23.7809 41.5292 23.7956 41.5391C23.811 41.547 23.9937 41.6454 24.2087 41.7405C24.6271 41.9272 24.7234 41.9508 25.0343 42.0326C25.9711 42.2781 27.012 42.2498 28.0458 41.9458C28.201 41.9013 28.6227 41.7419 28.7708 41.6718C29.6687 41.2534 30.4143 40.6197 30.9667 39.7901C31.1606 39.5007 31.2763 39.2876 31.4316 38.9436C31.5472 38.6883 31.6019 38.5216 31.6769 38.2909C32.1135 36.9494 32.1593 35.4316 31.7974 33.8151C31.6237 33.0395 31.3627 32.2734 30.9952 31.455C30.6327 30.6466 30.4152 30.0083 30.2021 29.181C30.0032 28.4051 29.8828 27.754 29.6806 26.3792C29.5117 25.2278 29.4508 24.7962 29.3549 24.3324C29.083 23.0383 28.6892 22.1095 28.0897 21.3413C27.5002 20.5856 26.6575 19.9473 25.6178 19.4774Z" fill="white"/>
<path id="Vector_2" d="M27.6317 11.9586C28.0773 10.41 28.0576 8.83002 27.587 7.45536C27.3212 6.6823 26.8921 5.99521 26.3556 5.50311C25.7892 4.98346 25.0878 4.6595 24.3513 4.58246C23.9158 4.53722 23.5081 4.57272 23.0507 4.6936C22.9112 4.73176 22.4647 4.90012 22.3269 4.9672C21.3865 5.42719 20.5568 6.23157 19.9264 7.26184C19.7417 7.56535 19.7036 7.64766 19.5021 8.09334C19.2961 8.55043 19.2353 8.67528 19.1217 9.0432C18.4905 11.0945 18.6924 13.256 19.6548 14.772C20.0405 15.3816 20.539 15.8501 21.1211 16.165C21.2374 16.2277 21.4996 16.3346 21.6254 16.3769C22.063 16.5233 22.5311 16.5915 22.9914 16.5542C23.1396 16.5427 23.4153 16.487 23.5572 16.4528C24.8503 16.1386 26.0564 15.1275 26.8794 13.6977C27.1829 13.1698 27.4602 12.5548 27.6317 11.9586Z" fill="white"/>
<path id="Vector_3" d="M42.1323 22.6118C41.9534 22.4828 41.833 22.4022 41.6108 22.2948C41.0032 22.0033 40.339 21.8958 39.5876 21.9179C38.995 21.9365 38.4664 22.0243 37.8713 22.2312C37.695 22.2921 37.5354 22.3458 37.3624 22.4236C36.1532 22.968 35.0423 23.9183 34.3381 25.0219C33.4536 26.4066 33.2268 27.9391 33.6961 29.1806C33.9716 29.9095 34.488 30.5137 35.175 30.9044C35.2172 30.9286 35.3763 30.9972 35.5257 31.0624C35.8146 31.1887 35.9136 31.2276 36.1695 31.2887C37.0801 31.5045 38.1421 31.4188 39.1296 31.0649C39.6394 30.8818 40.0517 30.6929 40.4949 30.4143C41.5342 29.7608 42.3495 28.886 42.9033 27.8477C43.0008 27.6658 43.2163 27.1685 43.2741 26.9914C43.6125 25.9595 43.6198 25.0105 43.3005 24.1624C43.1606 23.7924 43.0092 23.5203 42.7653 23.2227C42.571 22.9839 42.3815 22.7905 42.1323 22.6118Z" fill="white"/>
<path id="Vector_4" d="M11.5495 20.2088C11.7749 20.2766 11.9218 20.3211 12.1369 20.3443C13.7025 20.5153 15.1941 19.5525 16.0582 17.8104C16.5898 16.7381 16.8205 15.4643 16.7095 14.2072C16.5513 12.4216 15.6989 10.8372 14.4722 10.0627C14.1525 9.8621 13.7944 9.70335 13.4536 9.61962C12.7493 9.44667 12.0427 9.51269 11.3746 9.80184C10.9729 9.97442 10.5816 10.2189 10.224 10.549C9.94916 10.8041 9.6348 11.1752 9.40826 11.5289C9.23956 11.7942 9.2026 11.8761 9.02123 12.2793C8.83501 12.6919 8.80585 12.7827 8.71036 13.1134C8.24999 14.6998 8.36539 16.4865 9.03877 17.89C9.48303 18.8156 10.1305 19.5171 10.9157 19.9553C11.0513 20.0306 11.3966 20.1625 11.5495 20.2088Z" fill="white"/>
<path id="Vector_5" d="M37.987 10.4613C37.838 10.3682 37.4406 10.193 37.2585 10.1322C36.4215 9.85328 35.4971 9.85041 34.51 10.1415C34.3328 10.193 33.9308 10.3472 33.7461 10.4303C32.1984 11.1269 30.845 12.441 29.9948 14.0636C29.8831 14.2778 29.6142 14.8601 29.5439 15.0626C29.1694 16.1505 29.0666 17.1828 29.2296 18.1354C29.4408 19.3801 30.1002 20.351 31.1199 20.8893C31.7827 21.2385 32.6293 21.3735 33.4805 21.2726C35.6164 21.0204 37.7412 19.394 38.9205 17.135C39.0205 16.9446 39.2747 16.3899 39.3347 16.2173C39.7175 15.129 39.825 14.0941 39.6781 13.1561C39.4873 11.9561 38.9166 11.0425 37.987 10.4613Z" fill="white"/>
</g>
</svg>
