<svg width="47" height="47" viewBox="0 0 47 47" fill="none" xmlns="http://www.w3.org/2000/svg">
<g id="icon">
<path id="Vector" d="M25.4988 19.2596C25.2642 19.1388 25.1153 19.0827 24.9131 19.0091C24.1258 18.7207 23.2832 18.6589 22.3852 18.8103C22.0181 18.872 21.6309 18.9801 21.21 19.1224C20.7899 19.2644 20.3516 19.4387 19.8672 19.6638C19.359 19.9009 18.9479 20.1085 17.8437 20.6884C16.4155 21.4384 15.6926 21.7814 14.8697 22.1071C14.2743 22.3427 13.732 22.5197 13.0964 22.6773C11.6963 23.024 10.4634 23.5812 9.41046 24.3462C8.5046 25.0053 7.79597 25.7618 7.2684 26.6407C7.17254 26.7993 6.96036 27.212 6.89012 27.3776C6.43446 28.437 6.28406 29.5066 6.47186 30.5904C6.62429 31.4673 7.0072 32.3576 7.50586 32.9853C8.23659 33.9063 9.25098 34.4995 10.821 34.953C11.3076 35.0946 11.9319 35.2496 12.9402 35.4587C14.3723 35.7581 15.1417 35.9656 15.8252 36.225C16.8022 36.5954 17.7702 37.1883 18.8436 38.0905C19.1696 38.3631 19.4644 38.6183 20.1355 39.2366C20.9156 39.9554 21.2167 40.2316 21.6111 40.5432C21.8806 40.7547 22.2106 40.9765 22.4331 41.1134C22.4926 41.1501 22.556 41.1912 22.5703 41.2018C22.5852 41.2105 22.7627 41.318 22.9727 41.4238C23.3812 41.6312 23.4761 41.6596 23.7826 41.7569C24.7058 42.0493 25.7469 42.0733 26.7947 41.8217C26.9518 41.785 27.381 41.647 27.5325 41.5844C28.4503 41.2117 29.2267 40.6163 29.8201 39.8154C30.0284 39.5361 30.1547 39.3292 30.327 38.9934C30.4553 38.7442 30.5183 38.5805 30.6049 38.3538C31.1083 37.036 31.2303 35.5223 30.9501 33.8898C30.8155 33.1064 30.5935 32.3281 30.2675 31.4923C29.9461 30.6668 29.761 30.0183 29.5897 29.1813C29.4301 28.3964 29.3425 27.7401 29.2096 26.3569C29.0988 25.1984 29.0597 24.7643 28.9872 24.2963C28.7808 22.9901 28.4341 22.0427 27.8739 21.2454C27.3232 20.461 26.5136 19.7812 25.4988 19.2596Z" fill="white"/>
<path id="Vector_2" d="M27.8881 11.8515C28.4109 10.3273 28.4707 8.74827 28.0697 7.3517C27.8431 6.56626 27.4491 5.85848 26.938 5.34003C26.3984 4.79258 25.7141 4.43378 24.9825 4.31983C24.5498 4.25275 24.1408 4.26772 23.6779 4.36546C23.5367 4.39657 23.0823 4.54227 22.9413 4.60234C21.979 5.01448 21.11 5.77616 20.4285 6.77344C20.2288 7.06729 20.1866 7.14758 19.963 7.58257C19.7343 8.02873 19.6672 8.15037 19.5353 8.51212C18.8018 10.5291 18.8949 12.6981 19.7799 14.2605C20.1344 14.8887 20.6088 15.3817 21.1743 15.7254C21.2873 15.7939 21.5438 15.9138 21.6673 15.9624C22.097 16.1305 22.561 16.2222 23.0227 16.2081C23.1713 16.204 23.4495 16.1623 23.5928 16.1352C24.9001 15.8864 26.1555 14.9372 27.0493 13.5506C27.379 13.0386 27.6868 12.4383 27.8881 11.8515Z" fill="white"/>
<path id="Vector_3" d="M41.835 23.22C41.6628 23.0821 41.5466 22.9956 41.33 22.8772C40.7378 22.5555 40.08 22.4148 39.3284 22.3991C38.7355 22.3879 38.2032 22.449 37.5984 22.6257C37.4193 22.6777 37.2572 22.7233 37.0805 22.7923C35.8455 23.2752 34.6882 24.1686 33.9295 25.2353C32.9765 26.5738 32.673 28.093 33.0793 29.3566C33.3179 30.0983 33.8032 30.7277 34.4697 31.1525C34.5106 31.1788 34.6661 31.2553 34.812 31.3279C35.0943 31.4685 35.1911 31.5123 35.4436 31.5862C36.3422 31.8475 37.4072 31.8153 38.4113 31.5114C38.9296 31.3543 39.3509 31.1863 39.8076 30.9303C40.8783 30.3299 41.7366 29.4972 42.3419 28.488C42.4484 28.3112 42.6886 27.8254 42.7552 27.6514C43.1451 26.6379 43.2 25.6904 42.9238 24.8273C42.8027 24.4508 42.6652 24.1714 42.4365 23.8619C42.2545 23.6137 42.0749 23.411 41.835 23.22Z" fill="white"/>
<path id="Vector_4" d="M11.4115 19.283C11.6332 19.3621 11.7777 19.414 11.9914 19.4479C13.5465 19.6974 15.0845 18.8107 16.035 17.1143C16.6199 16.07 16.9143 14.8095 16.8666 13.5484C16.7984 11.7571 16.0266 10.1318 14.8404 9.29669C14.5312 9.08027 14.1815 8.90372 13.8454 8.80297C13.1507 8.59485 12.4417 8.62528 11.7599 8.88048C11.35 9.03266 10.9469 9.25717 10.5732 9.56887C10.2858 9.80987 9.95324 10.1647 9.70921 10.5066C9.52739 10.763 9.48636 10.8429 9.28496 11.2366C9.07824 11.6393 9.04455 11.7285 8.93257 12.0539C8.39305 13.6152 8.41852 15.4055 9.02052 16.841C9.4177 17.7878 10.0291 18.5209 10.7913 18.9981C10.9229 19.0801 11.2612 19.2291 11.4115 19.283Z" fill="white"/>
<path id="Vector_5" d="M38.3055 10.8765C38.1614 10.776 37.7733 10.5811 37.5944 10.5112C36.7725 10.1906 35.8494 10.1413 34.849 10.3824C34.6694 10.425 34.2601 10.5587 34.0715 10.6324C32.4908 11.2503 31.073 12.4948 30.1424 14.0726C30.02 14.281 29.7222 14.849 29.6418 15.0477C29.2131 16.1154 29.0586 17.1412 29.1735 18.1008C29.3219 19.3546 29.9316 20.3574 30.923 20.9463C31.5675 21.3282 32.4062 21.5057 33.2614 21.4477C35.4073 21.3032 37.6111 19.7855 38.9025 17.5887C39.0119 17.4036 39.2937 16.8624 39.3622 16.693C39.7992 15.6253 39.9586 14.597 39.859 13.6529C39.7288 12.4448 39.2047 11.5037 38.3055 10.8765Z" fill="white"/>
</g>
</svg>
