<svg width="49" height="49" viewBox="0 0 49 49" fill="none" xmlns="http://www.w3.org/2000/svg">
<g id="icon">
<path id="Vector" d="M22.0668 20.1753C21.8246 20.2803 21.6868 20.3599 21.5018 20.4696C20.7797 20.8958 20.1979 21.5084 19.7459 22.299C19.561 22.6221 19.3991 22.9901 19.2424 23.4058C19.086 23.8208 18.9431 24.2703 18.8102 24.7876C18.6715 25.331 18.5715 25.7806 18.3203 27.0023C17.9952 28.5823 17.8023 29.3588 17.5327 30.2018C17.3377 30.8116 17.1309 31.3433 16.85 31.9348C16.2307 33.2376 15.8804 34.5444 15.8047 35.8436C15.7405 36.9621 15.8765 37.9896 16.2219 38.9548C16.2839 39.1295 16.4686 39.5551 16.5522 39.7144C17.0829 40.7383 17.8149 41.5325 18.7723 42.0742C19.5472 42.512 20.4785 42.7801 21.2801 42.7922C22.4556 42.8107 23.5574 42.402 24.9032 41.475C25.3211 41.1884 25.8367 40.8037 26.6375 40.1563C27.7767 39.2383 28.4249 38.7746 29.0587 38.4104C29.9644 37.8894 31.0365 37.5165 32.4147 37.2579C32.8321 37.1785 33.2164 37.1123 34.12 36.985C35.1704 36.8372 35.5749 36.7793 36.0659 36.6718C36.4002 36.5973 36.781 36.4827 37.0278 36.3973C37.094 36.3746 37.166 36.3515 37.1832 36.3472C37.1994 36.3412 37.3951 36.272 37.61 36.1767C38.0293 35.9921 38.1115 35.9367 38.3809 35.7613C39.1922 35.2325 39.8706 34.4424 40.34 33.4725C40.4113 33.3277 40.5765 32.9082 40.6241 32.7514C40.9175 31.8052 40.949 30.8273 40.7057 29.8607C40.6216 29.5226 40.5416 29.2938 40.3911 28.9477C40.2796 28.6905 40.193 28.538 40.0724 28.3274C39.3721 27.1028 38.2786 26.0491 36.8383 25.2311C36.147 24.8387 35.4043 24.5172 34.5512 24.2396C33.7089 23.965 33.09 23.6972 32.3341 23.2992C31.6258 22.9253 31.0625 22.577 29.9084 21.8031C28.9421 21.1547 28.5815 20.9098 28.1736 20.6692C27.0324 20.0011 26.0798 19.6688 25.1081 19.5967C24.1524 19.5256 23.1134 19.721 22.0668 20.1753Z" fill="white"/>
<path id="Vector_2" d="M17.8508 13.6321C17.0031 12.2617 15.8197 11.2147 14.4853 10.6397C13.7341 10.3172 12.9369 10.1734 12.2119 10.2402C11.4465 10.3106 10.7353 10.6124 10.1835 11.1061C9.85735 11.3983 9.60973 11.7241 9.39193 12.1442C9.32651 12.2731 9.15119 12.717 9.1083 12.8641C8.81719 13.8697 8.8556 15.0246 9.19512 16.1838C9.29585 16.5245 9.33121 16.608 9.52595 17.0567C9.7261 17.5163 9.77771 17.6453 9.9739 17.9766C11.0692 19.8223 12.8059 21.125 14.5753 21.4306C15.2859 21.5545 15.9679 21.5001 16.5922 21.2805C16.7168 21.2365 16.9721 21.1141 17.088 21.0494C17.4904 20.8236 17.8554 20.5227 18.1371 20.1567C18.2281 20.0392 18.3721 19.7975 18.442 19.6695C19.0781 18.5006 19.1396 16.9279 18.6335 15.3578C18.4464 14.7782 18.1772 14.1597 17.8508 13.6321Z" fill="white"/>
<path id="Vector_3" d="M35.4838 10.0492C35.268 10.095 35.1274 10.13 34.8986 10.2225C34.2744 10.4767 33.7486 10.8964 33.2602 11.4678C32.8757 11.9193 32.5856 12.3698 32.339 12.9496C32.2657 13.121 32.1983 13.2754 32.1396 13.4557C31.7304 14.7171 31.688 16.1785 32.0323 17.4415C32.4636 19.0269 33.4464 20.2245 34.6813 20.711C35.4062 20.9966 36.2007 21.0202 36.9516 20.7738C36.9979 20.7588 37.1556 20.6871 37.3043 20.6202C37.5919 20.491 37.6872 20.4439 37.9044 20.2954C38.676 19.7659 39.3261 18.9217 39.7274 17.9525C39.9344 17.4519 40.0714 17.0196 40.1628 16.5041C40.377 15.2953 40.2769 14.1037 39.8799 12.9959C39.8106 12.8015 39.5871 12.3078 39.4948 12.1459C38.9578 11.202 38.2598 10.5591 37.4171 10.2257C37.0491 10.0807 36.7458 10.01 36.3615 9.99072C36.0541 9.97424 35.7836 9.98469 35.4838 10.0492Z" fill="white"/>
<path id="Vector_4" d="M13.1566 31.0869C13.3583 30.9655 13.49 30.8866 13.6517 30.7428C14.8302 29.6981 15.1192 27.9464 14.4094 26.136C13.9723 25.0218 13.1838 23.9951 12.1782 23.2327C10.7493 22.1502 9.00305 21.7172 7.60524 22.1054C7.24187 22.2074 6.8837 22.366 6.59275 22.5621C5.99145 22.9676 5.56563 23.5353 5.33093 24.2244C5.18886 24.6379 5.10704 25.092 5.11126 25.5787C5.11558 25.9536 5.17921 26.4358 5.28901 26.8412C5.37216 27.1444 5.40798 27.2268 5.5848 27.6321C5.76527 28.0472 5.81296 28.1298 5.99371 28.4227C6.85941 29.8295 8.26037 30.9445 9.75228 31.3886C10.7363 31.6814 11.691 31.6732 12.5431 31.386C12.69 31.3362 13.0196 31.169 13.1566 31.0869Z" fill="white"/>
<path id="Vector_5" d="M23.6991 4.95622C23.53 5.00397 23.1332 5.1806 22.9658 5.27468C22.1969 5.70722 21.5737 6.39001 21.1262 7.31667C21.0453 7.48253 20.8894 7.88393 20.8268 8.07651C20.303 9.69084 20.367 11.5762 20.9977 13.2961C21.0812 13.5228 21.3319 14.1132 21.4346 14.3013C21.9888 15.3096 22.6843 16.0792 23.4994 16.5985C24.5633 17.2784 25.7254 17.4423 26.8092 17.0487C27.5131 16.7923 28.1819 16.256 28.6791 15.5577C29.9273 13.8063 30.1502 11.1397 29.2693 8.74851C29.1955 8.54653 28.9555 7.98558 28.8679 7.82519C28.319 6.8105 27.6246 6.03553 26.8312 5.51415C25.8142 4.84924 24.7542 4.65814 23.6991 4.95622Z" fill="white"/>
</g>
</svg>
